HIERARCHY
ROOT Hips
{
	OFFSET 0.000000 0.000000 0.000000 
	CHANNELS 6 Xposition Yposition Zposition Zrotation Yrotation Xrotation
	JOINT LeftUpLeg
	{
		OFFSET 1.363060 -1.794630 0.839290 
		CHANNELS 3 Zrotation Yrotation Xrotation
		JOINT LeftLeg
		{
			OFFSET 2.448110 -6.726130 0.000000 
			CHANNELS 3 Zrotation Yrotation Xrotation
			JOINT LeftFoot
			{
				OFFSET 2.562200 -7.039590 0.000000 
				CHANNELS 3 Zrotation Yrotation Xrotation
				JOINT LeftToeBase
				{
					OFFSET 0.157640 -0.433110 2.322550 
					CHANNELS 3 Zrotation Yrotation Xrotation
					End Site
					{
						OFFSET 0.000000 0.000000 0.000000 
					}
				}
			}
		}
	}
	JOINT RightUpLeg
	{
		OFFSET -1.305520 -1.794630 0.839290 
		CHANNELS 3 Zrotation Yrotation Xrotation
		JOINT RightLeg
		{
			OFFSET -2.542530 -6.985550 0.000000 
			CHANNELS 3 Zrotation Yrotation Xrotation
			JOINT RightFoot
			{
				OFFSET -2.568260 -7.056230 0.000000 
				CHANNELS 3 Zrotation Yrotation Xrotation
				JOINT RightToeBase
				{
					OFFSET -0.164730 -0.452590 2.363150 
					CHANNELS 3 Zrotation Yrotation Xrotation
					End Site
					{
						OFFSET 0.000000 0.000000 0.000000 
					}
				}
			}
		}
	}
	JOINT Spine
	{
		OFFSET 0.028270 2.035590 -0.193380 
		CHANNELS 3 Zrotation Yrotation Xrotation
		JOINT Spine1
		{
			OFFSET 0.056720 2.048850 -0.042750 
			CHANNELS 3 Zrotation Yrotation Xrotation
			JOINT Neck1
			{
				OFFSET -0.054170 1.746240 0.172020 
				CHANNELS 3 Zrotation Yrotation Xrotation
				JOINT Head
				{
					OFFSET 0.104070 1.761360 -0.123970 
					CHANNELS 3 Zrotation Yrotation Xrotation
					End Site
					{
						OFFSET 0.000000 0.000000 0.000000 
					}
				}
			}
			JOINT LeftArm
			{
				OFFSET 3.362410 1.200890 -0.311210 
				CHANNELS 3 Zrotation Yrotation Xrotation
				JOINT LeftForeArm
				{
					OFFSET 4.983000 -0.000000 -0.000000 
					CHANNELS 3 Zrotation Yrotation Xrotation
					JOINT LeftHand
					{
						OFFSET 3.483560 -0.000000 -0.000000 
						CHANNELS 3 Zrotation Yrotation Xrotation
						JOINT LeftHandIndex1
						{
							OFFSET 0.715260 -0.000000 -0.000000 
							CHANNELS 3 Zrotation Yrotation Xrotation
							End Site
							{
								OFFSET 0.000000 0.000000 0.000000 
							}
						}
					}
				}
			}
			JOINT RightArm
			{
				OFFSET -3.136600 1.374050 -0.404650 
				CHANNELS 3 Zrotation Yrotation Xrotation
				JOINT RightForeArm
				{
					OFFSET -5.241900 -0.000000 -0.000000 
					CHANNELS 3 Zrotation Yrotation Xrotation
					JOINT RightHand
					{
						OFFSET -3.444170 -0.000000 -0.000000 
						CHANNELS 3 Zrotation Yrotation Xrotation
						JOINT RightHandIndex1
						{
							OFFSET -0.622530 -0.000000 -0.000000 
							CHANNELS 3 Zrotation Yrotation Xrotation
							End Site
							{
								OFFSET 0.000000 0.000000 0.000000 
							}
						}
					}
				}
			}
		}
	}
}
MOTION
Frames: 9
Frame Time: 0.041667
-3.973182 22.008287 3.883292 -75.305854 -86.010871 86.820166 3.252864 1.557324 -32.797823 5.607341 19.027816 8.935535 -3.005796 26.579027 55.708975 0.564700 -4.812800 -13.375500 -1.155769 2.956400 -14.417432 2.849780 -6.984231 6.785558 5.882077 -34.482860 38.737514 -0.064000 -1.632300 4.490400 -3.619232 2.972307 -5.742747 -1.837637 1.315915 3.196074 7.850602 -6.823374 -7.752324 6.127000 -1.957500 -7.058100 47.480372 -37.899365 -86.061734 29.928848 -37.927034 -27.791519 -0.109659 -11.081196 -25.724578 -7.125000 0.000000 0.000000 -52.413594 28.267565 -88.800751 -26.063048 32.123499 -24.976057 9.405592 6.609741 16.051199 7.125000 0.000000 0.000000 
-4.127749 21.993427 3.895838 -75.589243 -86.260540 87.080910 2.013395 1.181108 -32.269451 6.744047 18.679273 7.755806 -3.219189 26.709670 55.887561 0.558400 -4.786700 -13.301100 -1.240870 2.923510 -14.285386 2.832854 -7.069221 7.018514 5.890789 -34.358497 38.608669 -0.044400 -1.359500 3.738500 -3.900205 3.066564 -5.654801 -1.782503 1.349330 3.266029 7.841607 -6.804220 -7.732928 6.119400 -1.949600 -7.023400 48.044044 -38.106793 -86.973795 30.420431 -38.301094 -28.331239 0.028942 -11.067561 -26.264867 -7.125000 0.000000 0.000000 -52.715278 28.728283 -89.177670 -26.420205 32.395391 -25.266734 9.437546 6.380199 16.735237 7.125000 0.000000 0.000000 
-4.283534 21.979176 3.909480 -75.873865 -86.490729 87.323477 0.884443 0.801677 -31.669190 7.771176 18.173268 6.648155 -3.373192 26.797432 56.018635 0.549600 -4.749400 -13.195100 -1.314548 2.873362 -14.152370 2.810342 -7.158667 7.271839 5.883900 -34.221057 38.507325 -0.028000 -1.079900 2.968600 -4.145844 3.144649 -5.538066 -1.731287 1.383896 3.323673 7.832170 -6.782245 -7.709400 6.109600 -1.941600 -6.983500 48.556654 -38.374426 -87.783164 30.990549 -38.696214 -28.931252 0.168713 -11.038653 -26.809498 -7.125000 0.000000 0.000000 -53.027001 29.239017 -89.520320 -26.833885 32.691996 -25.604472 9.454523 6.140298 17.427766 7.125000 0.000000 0.000000 
-4.440415 21.965291 3.924218 -76.157468 -86.693563 87.551860 -0.105784 0.441871 -31.045356 8.654092 17.575667 5.659057 -3.470274 26.838046 56.111372 0.538100 -4.700300 -13.055600 -1.374613 2.805019 -14.023339 2.781654 -7.253199 7.547666 5.860191 -34.070144 38.435929 -0.015100 -0.792800 2.178800 -4.356642 3.205751 -5.398443 -1.682976 1.420521 3.369142 7.823876 -6.758339 -7.679415 6.100700 -1.932900 -6.937600 49.019442 -38.709493 -88.489409 31.645629 -39.112841 -29.594955 0.306199 -10.992125 -27.351626 -7.125000 0.000000 0.000000 -53.345302 29.805538 -89.821003 -27.309213 33.013574 -25.993739 9.450525 5.893495 18.126506 7.125000 0.000000 0.000000 
-4.598514 21.952014 3.940052 -76.434857 -86.864545 87.767101 -0.945814 0.116633 -30.439703 9.379102 16.958577 4.817901 -3.515419 26.835902 56.178399 0.524200 -4.640100 -12.884900 -1.419649 2.718667 -13.902461 2.746273 -7.353687 7.847881 5.819701 -33.906964 38.395597 -0.006000 -0.498200 1.369000 -4.532471 3.249328 -5.244184 -1.638041 1.458804 3.400335 7.815628 -6.732856 -7.643246 6.090300 -1.924400 -6.886000 49.423086 -39.120559 -89.075985 32.391331 -39.550062 -30.327349 0.444473 -10.927818 -27.893202 -7.125000 0.000000 0.000000 -53.667181 30.434603 -90.070003 -27.851844 33.360943 -26.438046 9.420612 5.639807 18.825503 7.125000 0.000000 0.000000 
-4.757709 21.939469 3.957104 -76.712387 -87.006186 87.978116 -1.641335 -0.170601 -29.873446 9.948674 16.378792 4.137306 -3.512658 26.794912 56.231023 0.507900 -4.568400 -12.681500 -1.452733 2.612640 -13.792382 2.703739 -7.460464 8.173509 5.760759 -33.731458 38.390995 -0.000900 -0.198700 0.545900 -4.677893 3.274407 -5.076889 -1.594967 1.499422 3.416030 7.808314 -6.705862 -7.600804 6.079200 -1.915900 -6.829800 49.760496 -39.615715 -89.531318 33.233947 -40.007901 -31.133864 0.581864 -10.848439 -28.436298 -7.125000 0.000000 0.000000 -53.988077 31.134599 -90.257045 -28.471155 33.735912 -26.945451 9.363441 5.382281 19.521837 7.125000 0.000000 0.000000 
-4.918000 21.927532 3.975375 -76.984141 -87.122597 88.180846 -2.205528 -0.425135 -29.356962 10.376364 15.873429 3.615125 -3.465187 26.714503 56.279597 0.489900 -4.487700 -12.453000 -1.475909 2.486082 -13.694746 2.653467 -7.573926 8.525136 5.684430 -33.547771 38.423927 -0.000300 0.105200 -0.289000 -4.796971 3.280881 -4.900517 -1.551683 1.542592 3.415388 7.801818 -6.677496 -7.550982 6.066700 -1.907800 -6.767300 50.022601 -40.199754 -89.844395 34.174218 -40.483343 -32.015007 0.715783 -10.755179 -28.981905 -7.125000 0.000000 0.000000 -54.301692 31.911862 -90.371168 -29.172271 34.138232 -27.520350 9.282023 5.125486 20.209107 7.125000 0.000000 0.000000 
-5.079510 21.916570 3.994619 -77.255151 -87.216985 88.382623 -2.649727 -0.648766 -28.900439 10.674026 15.473841 3.247452 -3.377682 26.598254 56.332123 0.470200 -4.398100 -12.199500 -1.490846 2.339828 -13.611336 2.594946 -7.694772 8.904144 5.589447 -33.354902 38.497427 -0.003900 0.405800 -1.114900 -4.891168 3.269046 -4.720484 -1.507478 1.586969 3.394044 7.796820 -6.646973 -7.493530 6.053300 -1.899600 -6.698300 50.190183 -40.884103 -89.990888 35.218113 -40.973708 -32.975006 0.842454 -10.648503 -29.523119 -7.125000 0.000000 0.000000 -54.603607 32.774349 -90.406615 -29.961168 34.569145 -28.168430 9.177696 4.871668 20.881427 7.125000 0.000000 0.000000 
-5.241994 21.906460 4.014960 -77.524145 -87.292486 88.583589 -2.986780 -0.846628 -28.506411 10.855414 15.194800 3.024829 -3.255035 26.449232 56.393447 0.449100 -4.299600 -11.921200 -1.499120 2.173088 -13.543978 2.527651 -7.823178 9.311237 5.474742 -33.153576 38.615192 -0.011600 0.696700 -1.914500 -4.962659 3.239658 -4.541002 -1.462238 1.632065 3.346469 7.794007 -6.614534 -7.427920 6.039100 -1.891700 -6.624000 50.239390 -41.681703 -89.939624 36.367588 -41.475844 -34.014377 0.963466 -10.526464 -30.053653 -7.125000 0.000000 0.000000 -54.882922 33.731848 -90.348325 -30.843489 35.027665 -28.894411 9.050139 4.623779 21.534017 7.125000 0.000000 0.000000 
